<svg xmlns="http://www.w3.org/2000/svg" xmlns:svg="http://www.w3.org/2000/svg" id="svg21775" width="360" height="500" x="0" y="0" enable-background="new 0 0 120 40" version="1.1" viewBox="0 0 360 500" xml:space="preserve"><metadata id="metadata21839"/><g id="Layer_2" transform="matrix(12.584949,0,0,12.584949,-584.34433,-1.3717583)"><ellipse id="ellipse21778" cx="65.245" cy="28.418" fill="#fff" stroke="#000" stroke-width="1.1" d="m 69.656003,28.417999 c 0,2.940364 -1.974872,5.324 -4.411,5.324 -2.436128,0 -4.411,-2.383636 -4.411,-5.324 0,-2.940364 1.974872,-5.324 4.411,-5.324 2.436128,0 4.411,2.383636 4.411,5.324 z" rx="4.411" ry="5.324"/><g id="g21780"><g id="g21782"><path id="path21784" fill="#fff" d="m 58.303,39.285 c 0.063,-0.197 0.108,-0.4 0.108,-0.615 0,-1.359 -1.361,-2.463 -3.04,-2.463 -1.679,0 -3.039,1.104 -3.039,2.463 0,0.215 0.044,0.418 0.108,0.615 h 5.863 z"/></g><g id="g21786"><path id="path21788" fill="none" stroke="#000" stroke-linecap="round" stroke-linejoin="round" stroke-width="1.1" d="m 58.303,39.285 c 0.063,-0.197 0.108,-0.4 0.108,-0.615 0,-1.359 -1.361,-2.463 -3.04,-2.463 -1.679,0 -3.039,1.104 -3.039,2.463 0,0.215 0.044,0.418 0.108,0.615 h 5.863 z"/></g></g><g id="g21790"><g id="g21792"><path id="path21794" fill="#fff" d="m 68.949,39.285 c 0.062,-0.197 0.107,-0.4 0.107,-0.615 0,-1.359 -1.361,-2.463 -3.041,-2.463 -1.679,0 -3.039,1.104 -3.039,2.463 0,0.215 0.043,0.418 0.107,0.615 h 5.866 z"/></g><g id="g21796"><path id="path21798" fill="none" stroke="#000" stroke-linecap="round" stroke-linejoin="round" stroke-width="1.1" d="m 68.949,39.285 c 0.062,-0.197 0.107,-0.4 0.107,-0.615 0,-1.359 -1.361,-2.463 -3.041,-2.463 -1.679,0 -3.039,1.104 -3.039,2.463 0,0.215 0.043,0.418 0.107,0.615 h 5.866 z"/></g></g><circle id="circle21800" cx="49.684" cy="11.836" r="2.702" fill="#fff" stroke="#000" stroke-width="1.1" d="m 52.385998,11.836 c 0,1.492274 -1.209727,2.702 -2.702,2.702 -1.492273,0 -2.702,-1.209726 -2.702,-2.702 0,-1.492273 1.209727,-2.7019995 2.702,-2.7019995 1.492273,0 2.702,1.2097265 2.702,2.7019995 z"/><circle id="circle21802" cx="71.786" cy="11.836" r="2.702" fill="#fff" stroke="#000" stroke-width="1.1" d="m 74.488003,11.836 c 0,1.492274 -1.209727,2.702 -2.702,2.702 -1.492273,0 -2.702,-1.209726 -2.702,-2.702 0,-1.492273 1.209727,-2.7019995 2.702,-2.7019995 1.492273,0 2.702,1.2097265 2.702,2.7019995 z"/><path id="path21804" fill="none" stroke="#000" stroke-linecap="round" stroke-linejoin="round" stroke-width="1.1" d="m 68.226,2.352 c 0,0 0,0 -5.404,-1.272 l -1.986,6.278"/><ellipse id="ellipse21806" cx="56.146" cy="28.418" fill="#fff" stroke="#000" stroke-width="1.1" d="m 60.557,28.417999 c 0,2.940364 -1.974872,5.324 -4.411,5.324 -2.436128,0 -4.411,-2.383636 -4.411,-5.324 0,-2.940364 1.974872,-5.324 4.411,-5.324 2.436128,0 4.411,2.383636 4.411,5.324 z" rx="4.411" ry="5.324"/><circle id="circle21808" cx="70.431" cy="2.789" r="2.13" fill="#fff" stroke="#000" stroke-width="1.1" d="m 72.561,2.789 c 0,1.1763666 -0.953634,2.1300001 -2.13,2.1300001 -1.176367,0 -2.13,-0.9536335 -2.13,-2.1300001 0,-1.1763665 0.953633,-2.13000008 2.13,-2.13000008 1.176366,0 2.13,0.95363358 2.13,2.13000008 z"/><g id="g21810"><g id="g21812"><path id="path21814" fill="#fff" d="m 59.181,39.289 h 2.99 c 2.655,-1.383 4.624,-6.34 4.624,-12.262 0,-6.99 -2.74,-12.655 -6.119,-12.655 -3.38,0 -6.119,5.666 -6.119,12.655 0,5.922 1.968,10.879 4.624,12.262 z"/></g><g id="g21816"><path id="path21818" fill="none" stroke="#000" stroke-width="1.1" d="m 59.181,39.289 h 2.99 c 2.655,-1.383 4.624,-6.34 4.624,-12.262 0,-6.99 -2.74,-12.655 -6.119,-12.655 -3.38,0 -6.119,5.666 -6.119,12.655 0,5.922 1.968,10.879 4.624,12.262 z"/></g></g><ellipse id="ellipse21820" cx="60.676" cy="15.552" fill="#fff" stroke="#000" stroke-width="1.1" d="m 72.913999,15.552 c 0,4.411098 -5.47914,7.987 -12.238,7.987 -6.758861,0 -12.238,-3.575902 -12.238,-7.987 0,-4.411098 5.479139,-7.9869999 12.238,-7.9869999 6.75886,0 12.238,3.5759019 12.238,7.9869999 z" rx="12.238" ry="7.987"/><line id="line21822" x1="57.457" x2="64.053" y1="39.285" y2="39.285" fill="none" stroke="#000" stroke-linecap="round" stroke-linejoin="round" stroke-width="1.1"/><g id="g21824"><path id="circle21826" fill="#ff4500" stroke="none" d="m 135.90625,159.65625 c -13.67995,0 -25.15625,11.4763 -25.15625,25.15625 0,13.67995 11.4763,24.78125 25.15625,24.78125 13.67995,0 24.78125,-11.1013 24.78125,-24.78125 0,-13.67995 -11.1013,-25.15625 -24.78125,-25.15625 z" transform="matrix(0.07946,0,0,0.07946,45.637601,-0.68559946)"/><path id="circle21828" fill="#ff4500" stroke="none" d="m 244.46875,159.65625 c -13.68691,0 -25.1875,11.46934 -25.1875,25.15625 0,13.68691 11.50059,24.78125 25.1875,24.78125 13.68692,0 24.78125,-11.09434 24.78125,-24.78125 0,-13.68691 -11.09433,-25.15625 -24.78125,-25.15625 z" transform="matrix(0.07946,0,0,0.07946,45.637601,-0.68559946)"/><path id="path21830" fill="none" stroke="#000" stroke-linecap="round" stroke-width="1.1" d="m 56.507,19.229 c 1.066,1.066 2.786,1.271 4.212,1.271"/><path id="path21832" fill="none" stroke="#000" stroke-linecap="round" stroke-width="1.1" d="M 64.963,19.229 C 63.896,20.295 62.177,20.5 60.75,20.5"/></g></g></svg>